<?xml version="1.0" encoding="UTF-8" standalone="no"?>
<svg
   width="267.851pt"
   height="84.57pt"
   viewBox="0 0 267.851 84.57"
   version="1.1"
   id="svg25"
   sodipodi:docname="fulcrum.pdf"
   xmlns:inkscape="http://www.inkscape.org/namespaces/inkscape"
   xmlns:sodipodi="http://sodipodi.sourceforge.net/DTD/sodipodi-0.dtd"
   xmlns:xlink="http://www.w3.org/1999/xlink"
   xmlns="http://www.w3.org/2000/svg"
   xmlns:svg="http://www.w3.org/2000/svg">
  <sodipodi:namedview
     id="namedview25"
     pagecolor="#ffffff"
     bordercolor="#000000"
     borderopacity="0.25"
     inkscape:showpageshadow="2"
     inkscape:pageopacity="0.0"
     inkscape:pagecheckerboard="0"
     inkscape:deskcolor="#d1d1d1"
     inkscape:document-units="pt" />
  <defs
     id="defs6">
    <g
       id="g6">
      <g
         id="glyph-0-0">
        <path
           d="M 0.875 -0.59375 C 0.84375 -0.4375 0.78125 -0.203125 0.78125 -0.15625 C 0.78125 0.015625 0.921875 0.109375 1.078125 0.109375 C 1.203125 0.109375 1.375 0.03125 1.453125 -0.171875 C 1.453125 -0.1875 1.578125 -0.65625 1.640625 -0.90625 L 1.859375 -1.796875 C 1.90625 -2.03125 1.96875 -2.25 2.03125 -2.46875 C 2.0625 -2.640625 2.140625 -2.9375 2.15625 -2.96875 C 2.296875 -3.28125 2.828125 -4.1875 3.78125 -4.1875 C 4.234375 -4.1875 4.3125 -3.8125 4.3125 -3.484375 C 4.3125 -3.234375 4.25 -2.953125 4.171875 -2.65625 L 3.890625 -1.5 L 3.6875 -0.75 C 3.65625 -0.546875 3.5625 -0.203125 3.5625 -0.15625 C 3.5625 0.015625 3.703125 0.109375 3.84375 0.109375 C 4.15625 0.109375 4.21875 -0.140625 4.296875 -0.453125 C 4.4375 -1.015625 4.8125 -2.46875 4.890625 -2.859375 C 4.921875 -2.984375 5.453125 -4.1875 6.546875 -4.1875 C 6.96875 -4.1875 7.078125 -3.84375 7.078125 -3.484375 C 7.078125 -2.921875 6.65625 -1.78125 6.453125 -1.25 C 6.375 -1.015625 6.328125 -0.90625 6.328125 -0.703125 C 6.328125 -0.234375 6.671875 0.109375 7.140625 0.109375 C 8.078125 0.109375 8.453125 -1.34375 8.453125 -1.421875 C 8.453125 -1.53125 8.359375 -1.53125 8.328125 -1.53125 C 8.234375 -1.53125 8.234375 -1.5 8.1875 -1.34375 C 8.03125 -0.8125 7.71875 -0.109375 7.171875 -0.109375 C 7 -0.109375 6.921875 -0.203125 6.921875 -0.4375 C 6.921875 -0.6875 7.015625 -0.921875 7.109375 -1.140625 C 7.296875 -1.671875 7.71875 -2.765625 7.71875 -3.34375 C 7.71875 -3.984375 7.3125 -4.40625 6.5625 -4.40625 C 5.828125 -4.40625 5.3125 -3.96875 4.9375 -3.4375 C 4.9375 -3.5625 4.90625 -3.90625 4.625 -4.140625 C 4.375 -4.359375 4.0625 -4.40625 3.8125 -4.40625 C 2.90625 -4.40625 2.421875 -3.765625 2.25 -3.53125 C 2.203125 -4.109375 1.78125 -4.40625 1.328125 -4.40625 C 0.875 -4.40625 0.6875 -4.015625 0.59375 -3.84375 C 0.421875 -3.484375 0.296875 -2.90625 0.296875 -2.875 C 0.296875 -2.765625 0.390625 -2.765625 0.40625 -2.765625 C 0.515625 -2.765625 0.515625 -2.78125 0.578125 -3 C 0.75 -3.703125 0.953125 -4.1875 1.3125 -4.1875 C 1.46875 -4.1875 1.609375 -4.109375 1.609375 -3.734375 C 1.609375 -3.515625 1.578125 -3.40625 1.453125 -2.890625 Z M 0.875 -0.59375 "
           id="path1" />
      </g>
      <g
         id="glyph-0-1">
        <path
           d="M 5.140625 -6.8125 C 5.140625 -6.8125 5.140625 -6.921875 5.015625 -6.921875 C 4.859375 -6.921875 3.921875 -6.828125 3.75 -6.8125 C 3.671875 -6.796875 3.609375 -6.75 3.609375 -6.625 C 3.609375 -6.5 3.703125 -6.5 3.84375 -6.5 C 4.328125 -6.5 4.34375 -6.4375 4.34375 -6.328125 L 4.3125 -6.125 L 3.71875 -3.765625 C 3.53125 -4.140625 3.25 -4.40625 2.796875 -4.40625 C 1.640625 -4.40625 0.40625 -2.9375 0.40625 -1.484375 C 0.40625 -0.546875 0.953125 0.109375 1.71875 0.109375 C 1.921875 0.109375 2.421875 0.0625 3.015625 -0.640625 C 3.09375 -0.21875 3.453125 0.109375 3.921875 0.109375 C 4.28125 0.109375 4.5 -0.125 4.671875 -0.4375 C 4.828125 -0.796875 4.96875 -1.40625 4.96875 -1.421875 C 4.96875 -1.53125 4.875 -1.53125 4.84375 -1.53125 C 4.75 -1.53125 4.734375 -1.484375 4.703125 -1.34375 C 4.53125 -0.703125 4.359375 -0.109375 3.953125 -0.109375 C 3.671875 -0.109375 3.65625 -0.375 3.65625 -0.5625 C 3.65625 -0.8125 3.671875 -0.875 3.703125 -1.046875 Z M 3.078125 -1.1875 C 3.015625 -1 3.015625 -0.984375 2.875 -0.8125 C 2.4375 -0.265625 2.03125 -0.109375 1.75 -0.109375 C 1.25 -0.109375 1.109375 -0.65625 1.109375 -1.046875 C 1.109375 -1.546875 1.421875 -2.765625 1.65625 -3.234375 C 1.96875 -3.8125 2.40625 -4.1875 2.8125 -4.1875 C 3.453125 -4.1875 3.59375 -3.375 3.59375 -3.3125 C 3.59375 -3.25 3.578125 -3.1875 3.5625 -3.140625 Z M 3.078125 -1.1875 "
           id="path2" />
      </g>
      <g
         id="glyph-0-2">
        <path
           d="M 3.328125 -3.015625 C 3.390625 -3.265625 3.625 -4.1875 4.3125 -4.1875 C 4.359375 -4.1875 4.609375 -4.1875 4.8125 -4.0625 C 4.53125 -4 4.34375 -3.765625 4.34375 -3.515625 C 4.34375 -3.359375 4.453125 -3.171875 4.71875 -3.171875 C 4.9375 -3.171875 5.25 -3.34375 5.25 -3.75 C 5.25 -4.265625 4.671875 -4.40625 4.328125 -4.40625 C 3.75 -4.40625 3.40625 -3.875 3.28125 -3.65625 C 3.03125 -4.3125 2.5 -4.40625 2.203125 -4.40625 C 1.171875 -4.40625 0.59375 -3.125 0.59375 -2.875 C 0.59375 -2.765625 0.703125 -2.765625 0.71875 -2.765625 C 0.796875 -2.765625 0.828125 -2.796875 0.84375 -2.875 C 1.1875 -3.9375 1.84375 -4.1875 2.1875 -4.1875 C 2.375 -4.1875 2.71875 -4.09375 2.71875 -3.515625 C 2.71875 -3.203125 2.546875 -2.546875 2.1875 -1.140625 C 2.03125 -0.53125 1.671875 -0.109375 1.234375 -0.109375 C 1.171875 -0.109375 0.953125 -0.109375 0.734375 -0.234375 C 0.984375 -0.296875 1.203125 -0.5 1.203125 -0.78125 C 1.203125 -1.046875 0.984375 -1.125 0.84375 -1.125 C 0.53125 -1.125 0.296875 -0.875 0.296875 -0.546875 C 0.296875 -0.09375 0.78125 0.109375 1.21875 0.109375 C 1.890625 0.109375 2.25 -0.59375 2.265625 -0.640625 C 2.390625 -0.28125 2.75 0.109375 3.34375 0.109375 C 4.375 0.109375 4.9375 -1.171875 4.9375 -1.421875 C 4.9375 -1.53125 4.859375 -1.53125 4.828125 -1.53125 C 4.734375 -1.53125 4.71875 -1.484375 4.6875 -1.421875 C 4.359375 -0.34375 3.6875 -0.109375 3.375 -0.109375 C 2.984375 -0.109375 2.828125 -0.421875 2.828125 -0.765625 C 2.828125 -0.984375 2.875 -1.203125 2.984375 -1.640625 Z M 3.328125 -3.015625 "
           id="path3" />
      </g>
      <g
         id="glyph-1-0">
        <path
           d="M 2.328125 -4.4375 C 2.328125 -4.625 2.328125 -4.625 2.125 -4.625 C 1.671875 -4.1875 1.046875 -4.1875 0.765625 -4.1875 L 0.765625 -3.9375 C 0.921875 -3.9375 1.390625 -3.9375 1.765625 -4.125 L 1.765625 -0.578125 C 1.765625 -0.34375 1.765625 -0.25 1.078125 -0.25 L 0.8125 -0.25 L 0.8125 0 C 0.9375 0 1.796875 -0.03125 2.046875 -0.03125 C 2.265625 -0.03125 3.140625 0 3.296875 0 L 3.296875 -0.25 L 3.03125 -0.25 C 2.328125 -0.25 2.328125 -0.34375 2.328125 -0.578125 Z M 2.328125 -4.4375 "
           id="path4" />
      </g>
      <g
         id="glyph-1-1">
        <path
           d="M 3.515625 -1.265625 L 3.28125 -1.265625 C 3.265625 -1.109375 3.1875 -0.703125 3.09375 -0.640625 C 3.046875 -0.59375 2.515625 -0.59375 2.40625 -0.59375 L 1.125 -0.59375 C 1.859375 -1.234375 2.109375 -1.4375 2.515625 -1.765625 C 3.03125 -2.171875 3.515625 -2.609375 3.515625 -3.265625 C 3.515625 -4.109375 2.78125 -4.625 1.890625 -4.625 C 1.03125 -4.625 0.4375 -4.015625 0.4375 -3.375 C 0.4375 -3.03125 0.734375 -2.984375 0.8125 -2.984375 C 0.96875 -2.984375 1.171875 -3.109375 1.171875 -3.359375 C 1.171875 -3.484375 1.125 -3.734375 0.765625 -3.734375 C 0.984375 -4.21875 1.453125 -4.375 1.78125 -4.375 C 2.484375 -4.375 2.84375 -3.828125 2.84375 -3.265625 C 2.84375 -2.65625 2.40625 -2.1875 2.1875 -1.9375 L 0.515625 -0.265625 C 0.4375 -0.203125 0.4375 -0.1875 0.4375 0 L 3.3125 0 Z M 3.515625 -1.265625 "
           id="path5" />
      </g>
      <g
         id="glyph-2-0">
        <path
           d="M 4.28125 -5.578125 L 4.28125 -5.875 L 0.6875 -5.875 L 0.6875 -5.578125 Z M 4.28125 -5.578125 "
           id="path6" />
      </g>
    </g>
  </defs>
  <path
     fill="none"
     stroke-width="0.3985"
     stroke-linecap="butt"
     stroke-linejoin="miter"
     stroke="rgb(0%, 0%, 0%)"
     stroke-opacity="1"
     stroke-miterlimit="10"
     d="M 19.840719 0.00134375 C 19.840719 10.958375 10.957906 19.841187 0.000875 19.841187 C -10.960062 19.841187 -19.842875 10.958375 -19.842875 0.00134375 C -19.842875 -10.959594 -10.960062 -19.842406 0.000875 -19.842406 C 10.957906 -19.842406 19.840719 -10.959594 19.840719 0.00134375 Z M 19.840719 0.00134375 "
     transform="matrix(1, 0, 0, -1, 28.546, 43.599)"
     id="path7" />
  <g
     fill="rgb(0%, 0%, 0%)"
     fill-opacity="1"
     id="g7">
    <use
       xlink:href="#glyph-0-0"
       x="21.937"
       y="44.997"
       id="use7" />
  </g>
  <g
     fill="rgb(0%, 0%, 0%)"
     fill-opacity="1"
     id="g8">
    <use
       xlink:href="#glyph-1-0"
       x="30.685"
       y="46.491"
       id="use8" />
  </g>
  <path
     fill="none"
     stroke-width="0.3985"
     stroke-linecap="butt"
     stroke-linejoin="miter"
     stroke="rgb(0%, 0%, 0%)"
     stroke-opacity="1"
     stroke-miterlimit="10"
     d="M 209.7665 0.00134375 C 209.7665 6.263062 204.688375 11.337281 198.426656 11.337281 C 192.164938 11.337281 187.090719 6.263062 187.090719 0.00134375 C 187.090719 -6.260375 192.164938 -11.3385 198.426656 -11.3385 C 204.688375 -11.3385 209.7665 -6.260375 209.7665 0.00134375 Z M 209.7665 0.00134375 "
     transform="matrix(1, 0, 0, -1, 28.546, 43.599)"
     id="path8" />
  <g
     fill="rgb(0%, 0%, 0%)"
     fill-opacity="1"
     id="g9">
    <use
       xlink:href="#glyph-0-0"
       x="220.362"
       y="44.997"
       id="use9" />
  </g>
  <g
     fill="rgb(0%, 0%, 0%)"
     fill-opacity="1"
     id="g10">
    <use
       xlink:href="#glyph-1-1"
       x="229.11"
       y="46.491"
       id="use10" />
  </g>
  <path
     fill="none"
     stroke-width="0.3985"
     stroke-linecap="butt"
     stroke-linejoin="miter"
     stroke="rgb(0%, 0%, 0%)"
     stroke-opacity="1"
     stroke-miterlimit="10"
     d="M 19.840719 0.282594 L 187.090719 0.282594 "
     transform="matrix(1, 0, 0, -1, 28.546, 43.599)"
     id="path10" />
  <path
     fill="none"
     stroke-width="0.3985"
     stroke-linecap="butt"
     stroke-linejoin="miter"
     stroke="rgb(0%, 0%, 0%)"
     stroke-opacity="1"
     stroke-miterlimit="10"
     d="M 70.868063 0.00134375 L 68.032125 -22.678344 L 73.700094 -22.678344 Z M 70.868063 0.00134375 "
     transform="matrix(1, 0, 0, -1, 28.546, 43.599)"
     id="path11" />
  <path
     fill="none"
     stroke-width="0.3985"
     stroke-linecap="butt"
     stroke-linejoin="miter"
     stroke="rgb(0%, 0%, 0%)"
     stroke-opacity="1"
     stroke-miterlimit="10"
     d="M 0.29775 28.345094 L 70.567281 28.345094 "
     transform="matrix(1, 0, 0, -1, 28.546, 43.599)"
     id="path12" />
  <path
     fill="none"
     stroke-width="0.3985"
     stroke-linecap="square"
     stroke-linejoin="miter"
     stroke="rgb(0%, 0%, 0%)"
     stroke-opacity="1"
     stroke-miterlimit="10"
     d="M 0.0987663 -2.592044 L 0.0987663 2.59155 "
     transform="matrix(-1, 0, 0, 1, 28.84486, 15.2522)"
     id="path13" />
  <path
     fill="none"
     stroke-width="0.3985"
     stroke-linecap="square"
     stroke-linejoin="miter"
     stroke="rgb(0%, 0%, 0%)"
     stroke-opacity="1"
     stroke-miterlimit="10"
     d="M 0.100694 -2.59155 L 0.100694 2.592044 "
     transform="matrix(1, 0, 0, -1, 99.11415, 15.2522)"
     id="path14" />
  <g
     fill="rgb(0%, 0%, 0%)"
     fill-opacity="1"
     id="g14">
    <use
       xlink:href="#glyph-0-1"
       x="59.151"
       y="10.239"
       id="use14" />
  </g>
  <g
     fill="rgb(0%, 0%, 0%)"
     fill-opacity="1"
     id="g15">
    <use
       xlink:href="#glyph-1-0"
       x="64.337"
       y="11.733"
       id="use15" />
  </g>
  <path
     fill="none"
     stroke-width="0.3985"
     stroke-linecap="butt"
     stroke-linejoin="miter"
     stroke="rgb(0%, 0%, 0%)"
     stroke-opacity="1"
     stroke-miterlimit="10"
     d="M 70.868063 28.345094 L 198.129781 28.345094 "
     transform="matrix(1, 0, 0, -1, 28.546, 43.599)"
     id="path15" />
  <path
     fill="none"
     stroke-width="0.3985"
     stroke-linecap="square"
     stroke-linejoin="miter"
     stroke="rgb(0%, 0%, 0%)"
     stroke-opacity="1"
     stroke-miterlimit="10"
     d="M 0.0986575 -2.59155 L 0.0986575 2.592044 "
     transform="matrix(1, 0, 0, -1, 226.67478, 15.2522)"
     id="path16" />
  <g
     fill="rgb(0%, 0%, 0%)"
     fill-opacity="1"
     id="g16">
    <use
       xlink:href="#glyph-0-1"
       x="158.364"
       y="10.239"
       id="use16" />
  </g>
  <g
     fill="rgb(0%, 0%, 0%)"
     fill-opacity="1"
     id="g17">
    <use
       xlink:href="#glyph-1-1"
       x="163.549"
       y="11.733"
       id="use17" />
  </g>
  <path
     fill="none"
     stroke-width="0.3985"
     stroke-linecap="butt"
     stroke-linejoin="miter"
     stroke="rgb(0%, 0%, 0%)"
     stroke-opacity="1"
     stroke-miterlimit="10"
     d="M -27.88975 -28.346313 L -0.299906 -28.346313 "
     transform="matrix(1, 0, 0, -1, 28.546, 43.599)"
     id="path17" />
  <path
     fill="none"
     stroke-width="0.31879"
     stroke-linecap="round"
     stroke-linejoin="round"
     stroke="rgb(0%, 0%, 0%)"
     stroke-opacity="1"
     stroke-miterlimit="10"
     d="M -1.194082 1.593263 C -1.096426 0.995606 0.00123 0.101075 0.298105 -0.0004875 C 0.00123 -0.0981437 -1.096426 -0.996581 -1.194082 -1.594237 "
     transform="matrix(-1, 0, 0, 1, 0.65748, 71.9458)"
     id="path18" />
  <path
     fill="none"
     stroke-width="0.3985"
     stroke-linecap="square"
     stroke-linejoin="miter"
     stroke="rgb(0%, 0%, 0%)"
     stroke-opacity="1"
     stroke-miterlimit="10"
     d="M 0.100516 -2.589356 L 0.100516 2.590331 "
     transform="matrix(1, 0, 0, -1, 28.24714, 71.9458)"
     id="path19" />
  <g
     fill="rgb(0%, 0%, 0%)"
     fill-opacity="1"
     id="g19">
    <use
       xlink:href="#glyph-0-2"
       x="23.464"
       y="79.755"
       id="use19" />
  </g>
  <g
     fill="rgb(0%, 0%, 0%)"
     fill-opacity="1"
     id="g20">
    <use
       xlink:href="#glyph-1-0"
       x="29.158"
       y="81.249"
       id="use20" />
  </g>
  <path
     fill="none"
     stroke-width="0.3985"
     stroke-linecap="butt"
     stroke-linejoin="miter"
     stroke="rgb(0%, 0%, 0%)"
     stroke-opacity="1"
     stroke-miterlimit="10"
     d="M 0.000875 -28.346313 L 70.567281 -28.346313 "
     transform="matrix(1, 0, 0, -1, 28.546, 43.599)"
     id="path20" />
  <path
     fill="none"
     stroke-width="0.3985"
     stroke-linecap="square"
     stroke-linejoin="miter"
     stroke="rgb(0%, 0%, 0%)"
     stroke-opacity="1"
     stroke-miterlimit="10"
     d="M 0.100694 -2.589356 L 0.100694 2.590331 "
     transform="matrix(1, 0, 0, -1, 99.11415, 71.9458)"
     id="path21" />
  <g
     fill="rgb(0%, 0%, 0%)"
     fill-opacity="1"
     id="g21">
    <use
       xlink:href="#glyph-2-0"
       x="97.198"
       y="81.122"
       id="use21" />
  </g>
  <g
     fill="rgb(0%, 0%, 0%)"
     fill-opacity="1"
     id="g22">
    <use
       xlink:href="#glyph-0-2"
       x="96.565"
       y="81.122"
       id="use22" />
  </g>
  <path
     fill="none"
     stroke-width="0.3985"
     stroke-linecap="butt"
     stroke-linejoin="miter"
     stroke="rgb(0%, 0%, 0%)"
     stroke-opacity="1"
     stroke-miterlimit="10"
     d="M 70.868063 -28.346313 L 198.129781 -28.346313 "
     transform="matrix(1, 0, 0, -1, 28.546, 43.599)"
     id="path22" />
  <path
     fill="none"
     stroke-width="0.3985"
     stroke-linecap="square"
     stroke-linejoin="miter"
     stroke="rgb(0%, 0%, 0%)"
     stroke-opacity="1"
     stroke-miterlimit="10"
     d="M 0.0986575 -2.589356 L 0.0986575 2.590331 "
     transform="matrix(1, 0, 0, -1, 226.67478, 71.9458)"
     id="path23" />
  <g
     fill="rgb(0%, 0%, 0%)"
     fill-opacity="1"
     id="g23">
    <use
       xlink:href="#glyph-0-2"
       x="221.889"
       y="79.755"
       id="use23" />
  </g>
  <g
     fill="rgb(0%, 0%, 0%)"
     fill-opacity="1"
     id="g24">
    <use
       xlink:href="#glyph-1-1"
       x="227.583"
       y="81.249"
       id="use24" />
  </g>
  <path
     fill="none"
     stroke-width="0.3985"
     stroke-linecap="butt"
     stroke-linejoin="miter"
     stroke="rgb(0%, 0%, 0%)"
     stroke-opacity="1"
     stroke-miterlimit="10"
     d="M 198.426656 -28.346313 L 226.317281 -28.346313 "
     transform="matrix(1, 0, 0, -1, 28.546, 43.599)"
     id="path24" />
  <path
     fill="none"
     stroke-width="0.31879"
     stroke-linecap="round"
     stroke-linejoin="round"
     stroke="rgb(0%, 0%, 0%)"
     stroke-opacity="1"
     stroke-miterlimit="10"
     d="M -1.194231 1.594237 C -1.096575 0.996581 0.00108125 0.0981437 0.297956 0.0004875 C 0.00108125 -0.101075 -1.096575 -0.995606 -1.194231 -1.593263 "
     transform="matrix(1, 0, 0, -1, 254.8622, 71.9458)"
     id="path25" />
  <g
     fill="rgb(0%, 0%, 0%)"
     fill-opacity="1"
     id="g25">
    <use
       xlink:href="#glyph-0-2"
       x="258.837"
       y="74.091"
       id="use25" />
  </g>
</svg>
