<?xml version="1.0" encoding="UTF-8" standalone="no"?>
<svg
   width="216.727pt"
   height="187.487pt"
   viewBox="0 0 216.727 187.487"
   version="1.1"
   id="svg57"
   sodipodi:docname="shellmotivationsolved.pdf"
   xmlns:inkscape="http://www.inkscape.org/namespaces/inkscape"
   xmlns:sodipodi="http://sodipodi.sourceforge.net/DTD/sodipodi-0.dtd"
   xmlns:xlink="http://www.w3.org/1999/xlink"
   xmlns="http://www.w3.org/2000/svg"
   xmlns:svg="http://www.w3.org/2000/svg">
  <sodipodi:namedview
     id="namedview57"
     pagecolor="#ffffff"
     bordercolor="#000000"
     borderopacity="0.25"
     inkscape:showpageshadow="2"
     inkscape:pageopacity="0.0"
     inkscape:pagecheckerboard="0"
     inkscape:deskcolor="#d1d1d1"
     inkscape:document-units="pt" />
  <defs
     id="defs15">
    <g
       id="g12">
      <g
         id="glyph-0-0">
        <path
           d="M 6.5625 -2.296875 C 6.734375 -2.296875 6.921875 -2.296875 6.921875 -2.5 C 6.921875 -2.6875 6.734375 -2.6875 6.5625 -2.6875 L 1.171875 -2.6875 C 1 -2.6875 0.828125 -2.6875 0.828125 -2.5 C 0.828125 -2.296875 1 -2.296875 1.171875 -2.296875 Z M 6.5625 -2.296875 "
           id="path1" />
      </g>
      <g
         id="glyph-1-0">
        <path
           d="M 2.9375 -1.640625 L 2.9375 -0.78125 C 2.9375 -0.421875 2.90625 -0.3125 2.171875 -0.3125 L 1.96875 -0.3125 L 1.96875 0 C 2.375 -0.03125 2.890625 -0.03125 3.3125 -0.03125 C 3.734375 -0.03125 4.25 -0.03125 4.671875 0 L 4.671875 -0.3125 L 4.453125 -0.3125 C 3.71875 -0.3125 3.703125 -0.421875 3.703125 -0.78125 L 3.703125 -1.640625 L 4.6875 -1.640625 L 4.6875 -1.953125 L 3.703125 -1.953125 L 3.703125 -6.484375 C 3.703125 -6.6875 3.703125 -6.75 3.53125 -6.75 C 3.453125 -6.75 3.421875 -6.75 3.34375 -6.625 L 0.28125 -1.953125 L 0.28125 -1.640625 Z M 2.984375 -1.953125 L 0.5625 -1.953125 L 2.984375 -5.671875 Z M 2.984375 -1.953125 "
           id="path2" />
      </g>
      <g
         id="glyph-1-1">
        <path
           d="M 2.9375 -6.375 C 2.9375 -6.625 2.9375 -6.640625 2.703125 -6.640625 C 2.078125 -6 1.203125 -6 0.890625 -6 L 0.890625 -5.6875 C 1.09375 -5.6875 1.671875 -5.6875 2.1875 -5.953125 L 2.1875 -0.78125 C 2.1875 -0.421875 2.15625 -0.3125 1.265625 -0.3125 L 0.953125 -0.3125 L 0.953125 0 C 1.296875 -0.03125 2.15625 -0.03125 2.5625 -0.03125 C 2.953125 -0.03125 3.828125 -0.03125 4.171875 0 L 4.171875 -0.3125 L 3.859375 -0.3125 C 2.953125 -0.3125 2.9375 -0.421875 2.9375 -0.78125 Z M 2.9375 -6.375 "
           id="path3" />
      </g>
      <g
         id="glyph-1-2">
        <path
           d="M 6.84375 -3.265625 C 7 -3.265625 7.1875 -3.265625 7.1875 -3.453125 C 7.1875 -3.65625 7 -3.65625 6.859375 -3.65625 L 0.890625 -3.65625 C 0.75 -3.65625 0.5625 -3.65625 0.5625 -3.453125 C 0.5625 -3.265625 0.75 -3.265625 0.890625 -3.265625 Z M 6.859375 -1.328125 C 7 -1.328125 7.1875 -1.328125 7.1875 -1.53125 C 7.1875 -1.71875 7 -1.71875 6.84375 -1.71875 L 0.890625 -1.71875 C 0.75 -1.71875 0.5625 -1.71875 0.5625 -1.53125 C 0.5625 -1.328125 0.75 -1.328125 0.890625 -1.328125 Z M 6.859375 -1.328125 "
           id="path4" />
      </g>
      <g
         id="glyph-1-3">
        <path
           d="M 2.890625 -3.515625 C 3.703125 -3.78125 4.28125 -4.46875 4.28125 -5.265625 C 4.28125 -6.078125 3.40625 -6.640625 2.453125 -6.640625 C 1.453125 -6.640625 0.6875 -6.046875 0.6875 -5.28125 C 0.6875 -4.953125 0.90625 -4.765625 1.203125 -4.765625 C 1.5 -4.765625 1.703125 -4.984375 1.703125 -5.28125 C 1.703125 -5.765625 1.234375 -5.765625 1.09375 -5.765625 C 1.390625 -6.265625 2.046875 -6.390625 2.40625 -6.390625 C 2.828125 -6.390625 3.375 -6.171875 3.375 -5.28125 C 3.375 -5.15625 3.34375 -4.578125 3.09375 -4.140625 C 2.796875 -3.65625 2.453125 -3.625 2.203125 -3.625 C 2.125 -3.609375 1.890625 -3.59375 1.8125 -3.59375 C 1.734375 -3.578125 1.671875 -3.5625 1.671875 -3.46875 C 1.671875 -3.359375 1.734375 -3.359375 1.90625 -3.359375 L 2.34375 -3.359375 C 3.15625 -3.359375 3.53125 -2.6875 3.53125 -1.703125 C 3.53125 -0.34375 2.84375 -0.0625 2.40625 -0.0625 C 1.96875 -0.0625 1.21875 -0.234375 0.875 -0.8125 C 1.21875 -0.765625 1.53125 -0.984375 1.53125 -1.359375 C 1.53125 -1.71875 1.265625 -1.921875 0.984375 -1.921875 C 0.734375 -1.921875 0.421875 -1.78125 0.421875 -1.34375 C 0.421875 -0.4375 1.34375 0.21875 2.4375 0.21875 C 3.65625 0.21875 4.5625 -0.6875 4.5625 -1.703125 C 4.5625 -2.515625 3.921875 -3.296875 2.890625 -3.515625 Z M 2.890625 -3.515625 "
           id="path5" />
      </g>
      <g
         id="glyph-1-4">
        <path
           d="M 3.296875 2.390625 C 3.296875 2.359375 3.296875 2.34375 3.125 2.171875 C 1.890625 0.921875 1.5625 -0.96875 1.5625 -2.5 C 1.5625 -4.234375 1.9375 -5.96875 3.171875 -7.203125 C 3.296875 -7.328125 3.296875 -7.34375 3.296875 -7.375 C 3.296875 -7.453125 3.265625 -7.484375 3.203125 -7.484375 C 3.09375 -7.484375 2.203125 -6.796875 1.609375 -5.53125 C 1.109375 -4.4375 0.984375 -3.328125 0.984375 -2.5 C 0.984375 -1.71875 1.09375 -0.515625 1.640625 0.625 C 2.25 1.84375 3.09375 2.5 3.203125 2.5 C 3.265625 2.5 3.296875 2.46875 3.296875 2.390625 Z M 3.296875 2.390625 "
           id="path6" />
      </g>
      <g
         id="glyph-1-5">
        <path
           d="M 2.875 -2.5 C 2.875 -3.265625 2.765625 -4.46875 2.21875 -5.609375 C 1.625 -6.828125 0.765625 -7.484375 0.671875 -7.484375 C 0.609375 -7.484375 0.5625 -7.4375 0.5625 -7.375 C 0.5625 -7.34375 0.5625 -7.328125 0.75 -7.140625 C 1.734375 -6.15625 2.296875 -4.578125 2.296875 -2.5 C 2.296875 -0.78125 1.9375 0.96875 0.703125 2.21875 C 0.5625 2.34375 0.5625 2.359375 0.5625 2.390625 C 0.5625 2.453125 0.609375 2.5 0.671875 2.5 C 0.765625 2.5 1.671875 1.8125 2.25 0.546875 C 2.765625 -0.546875 2.875 -1.65625 2.875 -2.5 Z M 2.875 -2.5 "
           id="path7" />
      </g>
      <g
         id="glyph-2-0">
        <path
           d="M 4.84375 -3.796875 C 4.890625 -3.9375 4.890625 -3.953125 4.890625 -4.03125 C 4.890625 -4.203125 4.75 -4.296875 4.59375 -4.296875 C 4.5 -4.296875 4.34375 -4.234375 4.25 -4.09375 C 4.234375 -4.03125 4.140625 -3.734375 4.109375 -3.546875 C 4.03125 -3.296875 3.96875 -3.015625 3.90625 -2.75 L 3.453125 -0.953125 C 3.421875 -0.8125 2.984375 -0.109375 2.328125 -0.109375 C 1.828125 -0.109375 1.71875 -0.546875 1.71875 -0.921875 C 1.71875 -1.375 1.890625 -2 2.21875 -2.875 C 2.375 -3.28125 2.421875 -3.390625 2.421875 -3.59375 C 2.421875 -4.03125 2.109375 -4.40625 1.609375 -4.40625 C 0.65625 -4.40625 0.296875 -2.953125 0.296875 -2.875 C 0.296875 -2.765625 0.390625 -2.765625 0.40625 -2.765625 C 0.515625 -2.765625 0.515625 -2.796875 0.5625 -2.953125 C 0.84375 -3.890625 1.234375 -4.1875 1.578125 -4.1875 C 1.65625 -4.1875 1.828125 -4.1875 1.828125 -3.875 C 1.828125 -3.625 1.71875 -3.359375 1.65625 -3.171875 C 1.25 -2.109375 1.078125 -1.546875 1.078125 -1.078125 C 1.078125 -0.1875 1.703125 0.109375 2.296875 0.109375 C 2.6875 0.109375 3.015625 -0.0625 3.296875 -0.34375 C 3.171875 0.171875 3.046875 0.671875 2.65625 1.203125 C 2.390625 1.53125 2.015625 1.828125 1.5625 1.828125 C 1.421875 1.828125 0.96875 1.796875 0.796875 1.40625 C 0.953125 1.40625 1.09375 1.40625 1.21875 1.28125 C 1.328125 1.203125 1.421875 1.0625 1.421875 0.875 C 1.421875 0.5625 1.15625 0.53125 1.0625 0.53125 C 0.828125 0.53125 0.5 0.6875 0.5 1.171875 C 0.5 1.671875 0.9375 2.046875 1.5625 2.046875 C 2.578125 2.046875 3.609375 1.140625 3.890625 0.015625 Z M 4.84375 -3.796875 "
           id="path8" />
      </g>
      <g
         id="glyph-2-1">
        <path
           d="M 3.328125 -3.015625 C 3.390625 -3.265625 3.625 -4.1875 4.3125 -4.1875 C 4.359375 -4.1875 4.609375 -4.1875 4.8125 -4.0625 C 4.53125 -4 4.34375 -3.765625 4.34375 -3.515625 C 4.34375 -3.359375 4.453125 -3.171875 4.71875 -3.171875 C 4.9375 -3.171875 5.25 -3.34375 5.25 -3.75 C 5.25 -4.265625 4.671875 -4.40625 4.328125 -4.40625 C 3.75 -4.40625 3.40625 -3.875 3.28125 -3.65625 C 3.03125 -4.3125 2.5 -4.40625 2.203125 -4.40625 C 1.171875 -4.40625 0.59375 -3.125 0.59375 -2.875 C 0.59375 -2.765625 0.703125 -2.765625 0.71875 -2.765625 C 0.796875 -2.765625 0.828125 -2.796875 0.84375 -2.875 C 1.1875 -3.9375 1.84375 -4.1875 2.1875 -4.1875 C 2.375 -4.1875 2.71875 -4.09375 2.71875 -3.515625 C 2.71875 -3.203125 2.546875 -2.546875 2.1875 -1.140625 C 2.03125 -0.53125 1.671875 -0.109375 1.234375 -0.109375 C 1.171875 -0.109375 0.953125 -0.109375 0.734375 -0.234375 C 0.984375 -0.296875 1.203125 -0.5 1.203125 -0.78125 C 1.203125 -1.046875 0.984375 -1.125 0.84375 -1.125 C 0.53125 -1.125 0.296875 -0.875 0.296875 -0.546875 C 0.296875 -0.09375 0.78125 0.109375 1.21875 0.109375 C 1.890625 0.109375 2.25 -0.59375 2.265625 -0.640625 C 2.390625 -0.28125 2.75 0.109375 3.34375 0.109375 C 4.375 0.109375 4.9375 -1.171875 4.9375 -1.421875 C 4.9375 -1.53125 4.859375 -1.53125 4.828125 -1.53125 C 4.734375 -1.53125 4.71875 -1.484375 4.6875 -1.421875 C 4.359375 -0.34375 3.6875 -0.109375 3.375 -0.109375 C 2.984375 -0.109375 2.828125 -0.421875 2.828125 -0.765625 C 2.828125 -0.984375 2.875 -1.203125 2.984375 -1.640625 Z M 3.328125 -3.015625 "
           id="path9" />
      </g>
      <g
         id="glyph-2-2">
        <path
           d="M 0.875 -0.59375 C 0.84375 -0.4375 0.78125 -0.203125 0.78125 -0.15625 C 0.78125 0.015625 0.921875 0.109375 1.078125 0.109375 C 1.203125 0.109375 1.375 0.03125 1.453125 -0.171875 C 1.46875 -0.203125 1.796875 -1.5625 1.84375 -1.75 C 1.921875 -2.078125 2.109375 -2.765625 2.15625 -3.046875 C 2.203125 -3.171875 2.484375 -3.640625 2.71875 -3.859375 C 2.796875 -3.921875 3.09375 -4.1875 3.515625 -4.1875 C 3.78125 -4.1875 3.921875 -4.0625 3.9375 -4.0625 C 3.640625 -4.015625 3.421875 -3.78125 3.421875 -3.515625 C 3.421875 -3.359375 3.53125 -3.171875 3.796875 -3.171875 C 4.0625 -3.171875 4.34375 -3.40625 4.34375 -3.765625 C 4.34375 -4.109375 4.03125 -4.40625 3.515625 -4.40625 C 2.875 -4.40625 2.4375 -3.921875 2.25 -3.640625 C 2.15625 -4.09375 1.796875 -4.40625 1.328125 -4.40625 C 0.875 -4.40625 0.6875 -4.015625 0.59375 -3.84375 C 0.421875 -3.5 0.296875 -2.90625 0.296875 -2.875 C 0.296875 -2.765625 0.390625 -2.765625 0.40625 -2.765625 C 0.515625 -2.765625 0.515625 -2.78125 0.578125 -3 C 0.75 -3.703125 0.953125 -4.1875 1.3125 -4.1875 C 1.46875 -4.1875 1.609375 -4.109375 1.609375 -3.734375 C 1.609375 -3.515625 1.578125 -3.40625 1.453125 -2.890625 Z M 0.875 -0.59375 "
           id="path10" />
      </g>
      <g
         id="glyph-2-3">
        <path
           d="M 2.859375 -6.8125 C 2.859375 -6.8125 2.859375 -6.921875 2.734375 -6.921875 C 2.5 -6.921875 1.78125 -6.84375 1.515625 -6.8125 C 1.4375 -6.8125 1.328125 -6.796875 1.328125 -6.625 C 1.328125 -6.5 1.421875 -6.5 1.5625 -6.5 C 2.046875 -6.5 2.0625 -6.4375 2.0625 -6.328125 L 2.03125 -6.125 L 0.59375 -0.390625 C 0.546875 -0.25 0.546875 -0.234375 0.546875 -0.171875 C 0.546875 0.0625 0.75 0.109375 0.84375 0.109375 C 1 0.109375 1.15625 -0.015625 1.203125 -0.15625 L 1.390625 -0.90625 L 1.609375 -1.796875 C 1.671875 -2.03125 1.734375 -2.25 1.78125 -2.46875 C 1.796875 -2.53125 1.890625 -2.859375 1.890625 -2.921875 C 1.921875 -3.015625 2.234375 -3.5625 2.578125 -3.84375 C 2.796875 -4 3.09375 -4.1875 3.53125 -4.1875 C 3.953125 -4.1875 4.0625 -3.84375 4.0625 -3.484375 C 4.0625 -2.953125 3.6875 -1.859375 3.453125 -1.25 C 3.375 -1.03125 3.3125 -0.90625 3.3125 -0.703125 C 3.3125 -0.234375 3.671875 0.109375 4.140625 0.109375 C 5.078125 0.109375 5.4375 -1.34375 5.4375 -1.421875 C 5.4375 -1.53125 5.359375 -1.53125 5.328125 -1.53125 C 5.21875 -1.53125 5.21875 -1.5 5.171875 -1.34375 C 5.03125 -0.8125 4.703125 -0.109375 4.15625 -0.109375 C 3.984375 -0.109375 3.921875 -0.203125 3.921875 -0.4375 C 3.921875 -0.6875 4 -0.921875 4.09375 -1.140625 C 4.25 -1.578125 4.703125 -2.765625 4.703125 -3.34375 C 4.703125 -3.984375 4.3125 -4.40625 3.5625 -4.40625 C 2.9375 -4.40625 2.453125 -4.09375 2.078125 -3.640625 Z M 2.859375 -6.8125 "
           id="path11" />
      </g>
      <g
         id="glyph-3-0">
        <path
           d="M 3.515625 -1.265625 L 3.28125 -1.265625 C 3.265625 -1.109375 3.1875 -0.703125 3.09375 -0.640625 C 3.046875 -0.59375 2.515625 -0.59375 2.40625 -0.59375 L 1.125 -0.59375 C 1.859375 -1.234375 2.109375 -1.4375 2.515625 -1.765625 C 3.03125 -2.171875 3.515625 -2.609375 3.515625 -3.265625 C 3.515625 -4.109375 2.78125 -4.625 1.890625 -4.625 C 1.03125 -4.625 0.4375 -4.015625 0.4375 -3.375 C 0.4375 -3.03125 0.734375 -2.984375 0.8125 -2.984375 C 0.96875 -2.984375 1.171875 -3.109375 1.171875 -3.359375 C 1.171875 -3.484375 1.125 -3.734375 0.765625 -3.734375 C 0.984375 -4.21875 1.453125 -4.375 1.78125 -4.375 C 2.484375 -4.375 2.84375 -3.828125 2.84375 -3.265625 C 2.84375 -2.65625 2.40625 -2.1875 2.1875 -1.9375 L 0.515625 -0.265625 C 0.4375 -0.203125 0.4375 -0.1875 0.4375 0 L 3.3125 0 Z M 3.515625 -1.265625 "
           id="path12" />
      </g>
    </g>
    <clipPath
       id="clip-0">
      <path
         clip-rule="nonzero"
         d="M 105 75 L 187 75 L 187 182.53125 L 105 182.53125 Z M 105 75 "
         id="path13" />
    </clipPath>
    <clipPath
       id="clip-1">
      <path
         clip-rule="nonzero"
         d="M 8 75 L 90 75 L 90 182.53125 L 8 182.53125 Z M 8 75 "
         id="path14" />
    </clipPath>
    <clipPath
       id="clip-2">
      <path
         clip-rule="nonzero"
         d="M 52 160 L 142 160 L 142 182.53125 L 52 182.53125 Z M 52 160 "
         id="path15" />
    </clipPath>
  </defs>
  <path
     fill="none"
     stroke-width="0.19925"
     stroke-linecap="butt"
     stroke-linejoin="miter"
     stroke="rgb(50%, 50%, 50%)"
     stroke-opacity="1"
     stroke-miterlimit="10"
     d="M 38.855688 9.135469 L 38.855688 13.385469 M 97.140844 9.135469 L 97.140844 13.385469 M 194.281469 9.135469 L 194.281469 13.385469 "
     transform="matrix(1, 0, 0, -1, 0.199, 182.53)"
     id="path16" />
  <path
     fill="none"
     stroke-width="0.19925"
     stroke-linecap="butt"
     stroke-linejoin="miter"
     stroke="rgb(50%, 50%, 50%)"
     stroke-opacity="1"
     stroke-miterlimit="10"
     d="M 114.441625 48.795625 L 118.695531 48.795625 "
     transform="matrix(1, 0, 0, -1, 0.199, 182.53)"
     id="path17" />
  <path
     fill="none"
     stroke-width="0.3985"
     stroke-linecap="butt"
     stroke-linejoin="miter"
     stroke="rgb(0%, 0%, 0%)"
     stroke-opacity="1"
     stroke-miterlimit="10"
     d="M 0.00021875 11.260469 L 192.289281 11.260469 "
     transform="matrix(1, 0, 0, -1, 0.199, 182.53)"
     id="path18" />
  <path
     fill-rule="nonzero"
     fill="rgb(0%, 0%, 0%)"
     fill-opacity="1"
     d="M 194.480469 171.269531 L 191.292969 169.675781 L 192.488281 171.269531 L 191.292969 172.863281 "
     id="path19" />
  <path
     fill="none"
     stroke-width="0.3985"
     stroke-linecap="butt"
     stroke-linejoin="miter"
     stroke="rgb(0%, 0%, 0%)"
     stroke-opacity="1"
     stroke-miterlimit="10"
     d="M 116.570531 -0.00125 L 116.570531 159.401094 "
     transform="matrix(1, 0, 0, -1, 0.199, 182.53)"
     id="path20" />
  <path
     fill-rule="nonzero"
     fill="rgb(0%, 0%, 0%)"
     fill-opacity="1"
     d="M 116.769531 21.136719 L 115.171875 24.324219 L 116.769531 23.128906 L 118.363281 24.324219 "
     id="path21" />
  <g
     fill="rgb(0%, 0%, 0%)"
     fill-opacity="1"
     id="g21">
    <use
       xlink:href="#glyph-0-0"
       x="32.69"
       y="183.336"
       id="use21" />
  </g>
  <g
     fill="rgb(0%, 0%, 0%)"
     fill-opacity="1"
     id="g22">
    <use
       xlink:href="#glyph-1-0"
       x="40.439"
       y="183.336"
       id="use22" />
  </g>
  <g
     fill="rgb(0%, 0%, 0%)"
     fill-opacity="1"
     id="g23">
    <use
       xlink:href="#glyph-0-0"
       x="90.974"
       y="183.336"
       id="use23" />
  </g>
  <g
     fill="rgb(0%, 0%, 0%)"
     fill-opacity="1"
     id="g24">
    <use
       xlink:href="#glyph-1-1"
       x="98.722"
       y="183.336"
       id="use24" />
  </g>
  <g
     fill="rgb(0%, 0%, 0%)"
     fill-opacity="1"
     id="g25">
    <use
       xlink:href="#glyph-1-0"
       x="191.987"
       y="183.336"
       id="use25" />
  </g>
  <g
     fill="rgb(0%, 0%, 0%)"
     fill-opacity="1"
     id="g26">
    <use
       xlink:href="#glyph-1-1"
       x="106.139"
       y="136.947"
       id="use26" />
  </g>
  <g
     clip-path="url(#clip-0)"
     id="g27">
    <path
       fill="none"
       stroke-width="0.79701"
       stroke-linecap="butt"
       stroke-linejoin="miter"
       stroke="rgb(0%, 0%, 0%)"
       stroke-opacity="1"
       stroke-miterlimit="10"
       d="M 116.562719 11.260469 L 116.679906 11.93625 L 116.914281 13.28 L 117.031469 13.947969 L 117.148656 14.612031 L 117.383031 15.932344 L 117.500219 16.588594 L 117.617406 17.240938 L 117.730688 17.893281 L 117.965063 19.190156 L 118.199438 20.471406 L 118.433813 21.744844 L 118.551 22.377656 L 118.668188 23.006563 L 118.785375 23.631563 L 118.898656 24.256563 L 119.015844 24.877656 L 119.250219 26.112031 L 119.367406 26.725313 L 119.601781 27.944063 L 119.718969 28.549531 L 119.953344 29.752656 L 120.066625 30.346406 L 120.183813 30.944063 L 120.418188 32.12375 L 120.535375 32.709688 L 120.76975 33.87375 L 120.886938 34.451875 L 121.004125 35.026094 L 121.121313 35.596406 L 121.234594 36.166719 L 121.468969 37.299531 L 121.586156 37.862031 L 121.703344 38.420625 L 121.937719 39.53 L 122.054906 40.080781 L 122.289281 41.174531 L 122.402563 41.7175 L 122.636938 42.795625 L 122.754125 43.326875 L 122.871313 43.862031 L 123.105688 44.916719 L 123.222875 45.440156 L 123.45725 46.479219 L 123.570531 46.994844 L 123.804906 48.018281 L 123.922094 48.526094 L 124.039281 49.03 L 124.273656 50.03 L 124.508031 51.022188 L 124.625219 51.510469 L 124.7385 51.99875 L 124.855688 52.487031 L 125.090063 53.447969 L 125.324438 54.401094 L 125.441625 54.87375 L 125.676 55.81125 L 125.793188 56.272188 L 125.906469 56.733125 L 126.023656 57.194063 L 126.375219 58.553438 L 126.609594 59.444063 L 126.843969 60.326875 L 126.961156 60.764375 L 127.074438 61.197969 L 127.308813 62.057344 L 127.543188 62.908906 L 127.777563 63.744844 L 128.011937 64.572969 L 128.129125 64.983125 L 128.242406 65.389375 L 128.359594 65.795625 L 128.476781 66.194063 L 128.593969 66.596406 L 128.828344 67.385469 L 128.945531 67.776094 L 129.179906 68.549531 L 129.297094 68.932344 L 129.410375 69.31125 L 129.64475 70.06125 L 129.879125 70.803438 L 129.996312 71.170625 L 130.1135 71.533906 L 130.347875 72.252656 L 130.465062 72.608125 L 130.578344 72.959688 L 130.695531 73.31125 L 130.812719 73.658906 L 130.929906 74.002656 L 131.164281 74.682344 L 131.398656 75.354219 L 131.633031 76.010469 L 131.746312 76.338594 L 132.097875 77.299531 L 132.33225 77.924531 L 132.566625 78.541719 L 132.683812 78.846406 L 132.801 79.147188 L 132.914281 79.444063 L 133.031469 79.740938 L 133.148656 80.033906 L 133.383031 80.612031 L 133.500219 80.897188 L 133.734594 81.459688 L 133.851781 81.733125 L 133.968969 82.010469 L 134.08225 82.28 L 134.199437 82.549531 L 134.316625 82.815156 L 134.551 83.338594 L 134.668187 83.596406 L 134.902562 84.104219 L 135.01975 84.354219 L 135.136937 84.600313 L 135.250219 84.8425 L 135.367406 85.084688 L 135.601781 85.56125 L 135.718969 85.791719 L 135.836156 86.026094 L 136.070531 86.479219 L 136.187719 86.697969 L 136.304906 86.920625 L 136.418187 87.135469 L 136.535375 87.350313 L 136.76975 87.772188 L 136.886937 87.979219 L 137.004125 88.182344 L 137.2385 88.580781 L 137.355687 88.776094 L 137.472875 88.9675 L 137.586156 89.158906 L 137.703344 89.346406 L 137.820531 89.53 L 138.054906 89.889375 L 138.289281 90.240938 L 138.406469 90.412813 L 138.523656 90.580781 L 138.640844 90.744844 L 138.754125 90.908906 L 138.871312 91.069063 L 139.105687 91.381563 L 139.222875 91.533906 L 139.340062 91.682344 L 139.574437 91.971406 L 139.808812 92.252656 L 139.922094 92.385469 L 140.156469 92.651094 L 140.508031 93.026094 L 140.742406 93.260469 L 140.976781 93.487031 L 141.090062 93.5925 L 141.20725 93.701875 L 141.441625 93.905 L 141.558812 94.002656 L 141.793187 94.190156 L 141.910375 94.28 L 142.027562 94.365938 L 142.14475 94.447969 L 142.258031 94.53 L 142.492406 94.68625 L 142.609594 94.756563 L 142.726781 94.830781 L 142.961156 94.963594 L 143.078344 95.026094 L 143.195531 95.084688 L 143.312719 95.139375 L 143.426 95.194063 L 143.660375 95.295625 L 143.777562 95.3425 L 143.89475 95.385469 L 144.129125 95.463594 L 144.246312 95.49875 L 144.480687 95.56125 L 144.593969 95.588594 L 144.828344 95.635469 L 144.945531 95.655 L 145.062719 95.670625 L 145.297094 95.694063 L 145.531469 95.709688 L 145.879125 95.709688 L 146.1135 95.694063 L 146.347875 95.670625 L 146.465062 95.655 L 146.58225 95.635469 L 146.816625 95.588594 L 146.929906 95.56125 L 147.164281 95.49875 L 147.281469 95.463594 L 147.515844 95.385469 L 147.633031 95.3425 L 147.750219 95.295625 L 147.984594 95.194063 L 148.101781 95.139375 L 148.215062 95.084688 L 148.33225 95.026094 L 148.449437 94.963594 L 148.683812 94.830781 L 148.801 94.756563 L 148.918187 94.68625 L 149.152562 94.53 L 149.26975 94.447969 L 149.383031 94.365938 L 149.500219 94.28 L 149.617406 94.190156 L 149.851781 94.002656 L 149.968969 93.905 L 150.203344 93.701875 L 150.320531 93.5925 L 150.437719 93.487031 L 150.551 93.37375 L 150.668187 93.260469 L 150.902562 93.026094 L 151.254125 92.651094 L 151.605687 92.252656 L 151.718969 92.112031 L 151.836156 91.971406 L 152.070531 91.682344 L 152.187719 91.533906 L 152.304906 91.381563 L 152.539281 91.069063 L 152.656469 90.908906 L 152.773656 90.744844 L 152.886937 90.580781 L 153.004125 90.412813 L 153.121312 90.240938 L 153.355687 89.889375 L 153.590062 89.53 L 153.70725 89.346406 L 153.824437 89.158906 L 153.941625 88.9675 L 154.054906 88.776094 L 154.172094 88.580781 L 154.406469 88.182344 L 154.523656 87.979219 L 154.640844 87.772188 L 154.875219 87.350313 L 155.109594 86.920625 L 155.222875 86.697969 L 155.340062 86.479219 L 155.574437 86.026094 L 155.691625 85.791719 L 155.808812 85.56125 L 156.043187 85.084688 L 156.277562 84.600313 L 156.390844 84.354219 L 156.508031 84.104219 L 156.742406 83.596406 L 156.859594 83.338594 L 157.093969 82.815156 L 157.211156 82.549531 L 157.445531 82.010469 L 157.558812 81.733125 L 157.676 81.459688 L 157.910375 80.897188 L 158.027562 80.612031 L 158.261937 80.033906 L 158.379125 79.740938 L 158.6135 79.147188 L 158.726781 78.846406 L 158.843969 78.541719 L 159.078344 77.924531 L 159.312719 77.299531 L 159.664281 76.338594 L 159.781469 76.010469 L 159.89475 75.682344 L 160.011937 75.354219 L 160.246312 74.682344 L 160.480687 74.002656 L 160.597875 73.658906 L 160.715062 73.31125 L 160.949437 72.608125 L 161.062719 72.252656 L 161.297094 71.533906 L 161.414281 71.170625 L 161.531469 70.803438 L 161.765844 70.06125 L 162.000219 69.31125 L 162.117406 68.932344 L 162.230687 68.549531 L 162.465062 67.776094 L 162.58225 67.385469 L 162.816625 66.596406 L 162.933812 66.194063 L 163.051 65.795625 L 163.285375 64.983125 L 163.398656 64.572969 L 163.633031 63.744844 L 163.867406 62.908906 L 164.101781 62.057344 L 164.336156 61.197969 L 164.453344 60.764375 L 164.566625 60.326875 L 164.801 59.444063 L 165.035375 58.553438 L 165.386937 57.194063 L 165.621312 56.272188 L 165.734594 55.81125 L 165.968969 54.87375 L 166.086156 54.401094 L 166.320531 53.447969 L 166.554906 52.487031 L 166.789281 51.510469 L 166.902562 51.022188 L 167.136937 50.03 L 167.371312 49.03 L 167.4885 48.526094 L 167.605687 48.018281 L 167.840062 46.994844 L 167.95725 46.479219 L 168.070531 45.959688 L 168.187719 45.440156 L 168.304906 44.916719 L 168.539281 43.862031 L 168.656469 43.326875 L 168.773656 42.795625 L 169.008031 41.7175 L 169.125219 41.174531 L 169.2385 40.627656 L 169.355687 40.080781 L 169.472875 39.53 L 169.70725 38.420625 L 169.824437 37.862031 L 169.941625 37.299531 L 170.176 36.166719 L 170.293187 35.596406 L 170.406469 35.026094 L 170.523656 34.451875 L 170.640844 33.87375 L 170.875219 32.709688 L 170.992406 32.12375 L 171.226781 30.944063 L 171.343969 30.346406 L 171.461156 29.752656 L 171.574437 29.151094 L 171.691625 28.549531 L 171.808812 27.944063 L 172.043187 26.725313 L 172.160375 26.112031 L 172.39475 24.877656 L 172.511937 24.256563 L 172.629125 23.631563 L 172.742406 23.006563 L 172.859594 22.377656 L 172.976781 21.744844 L 173.211156 20.471406 L 173.445531 19.190156 L 173.679906 17.893281 L 173.797094 17.240938 L 173.910375 16.588594 L 174.027562 15.932344 L 174.261937 14.612031 L 174.379125 13.947969 L 174.496312 13.28 L 174.730687 11.93625 L 174.847875 11.260469 "
       transform="matrix(1, 0, 0, -1, 0.199, 182.53)"
       id="path26" />
  </g>
  <g
     fill="rgb(0%, 0%, 0%)"
     fill-opacity="1"
     id="g28">
    <use
       xlink:href="#glyph-2-0"
       x="120.138"
       y="63.272"
       id="use27" />
  </g>
  <g
     fill="rgb(0%, 0%, 0%)"
     fill-opacity="1"
     id="g29">
    <use
       xlink:href="#glyph-1-2"
       x="128.147"
       y="63.272"
       id="use28" />
  </g>
  <g
     fill="rgb(0%, 0%, 0%)"
     fill-opacity="1"
     id="g30">
    <use
       xlink:href="#glyph-1-3"
       x="138.655593"
       y="63.272"
       id="use29" />
  </g>
  <g
     fill="rgb(0%, 0%, 0%)"
     fill-opacity="1"
     id="g31">
    <use
       xlink:href="#glyph-2-1"
       x="143.645"
       y="63.272"
       id="use30" />
  </g>
  <g
     fill="rgb(0%, 0%, 0%)"
     fill-opacity="1"
     id="g32">
    <use
       xlink:href="#glyph-0-0"
       x="151.553"
       y="63.272"
       id="use31" />
  </g>
  <g
     fill="rgb(0%, 0%, 0%)"
     fill-opacity="1"
     id="g33">
    <use
       xlink:href="#glyph-2-1"
       x="161.515"
       y="63.272"
       id="use32" />
  </g>
  <g
     fill="rgb(0%, 0%, 0%)"
     fill-opacity="1"
     id="g34">
    <use
       xlink:href="#glyph-3-0"
       x="167.209"
       y="59.657"
       id="use33" />
  </g>
  <path
     fill="none"
     stroke-width="0.19925"
     stroke-linecap="butt"
     stroke-linejoin="miter"
     stroke="rgb(0%, 0%, 0%)"
     stroke-opacity="1"
     stroke-miterlimit="10"
     d="M 143.398656 99.7175 C 140.687719 104.408906 136.289281 108.893281 139.590062 113.604219 "
     transform="matrix(1, 0, 0, -1, 0.199, 182.53)"
     id="path34" />
  <path
     fill="none"
     stroke-width="0.15938"
     stroke-linecap="round"
     stroke-linejoin="round"
     stroke="rgb(0%, 0%, 0%)"
     stroke-opacity="1"
     stroke-miterlimit="10"
     d="M -1.015903 1.355343 C -0.93096 0.846216 -0.000204746 0.0833029 0.253797 -0.000198806 C 0.00195242 -0.0848359 -0.929303 -0.846227 -1.015882 -1.355558 "
     transform="matrix(0.5, 0.86601, 0.86601, -0.5, 143.59593, 82.81136)"
     id="path35" />
  <path
     fill="none"
     stroke-width="0.79701"
     stroke-linecap="butt"
     stroke-linejoin="miter"
     stroke="rgb(0%, 0%, 0%)"
     stroke-opacity="1"
     stroke-dasharray="2.98883 2.98883"
     stroke-miterlimit="10"
     d="M 97.136938 11.260469 L 97.136938 123.862031 "
     transform="matrix(1, 0, 0, -1, 0.199, 182.53)"
     id="path36" />
  <g
     fill="rgb(0%, 0%, 0%)"
     fill-opacity="1"
     id="g36">
    <use
       xlink:href="#glyph-2-1"
       x="81.485"
       y="54.121"
       id="use36" />
  </g>
  <g
     fill="rgb(0%, 0%, 0%)"
     fill-opacity="1"
     id="g37">
    <use
       xlink:href="#glyph-1-2"
       x="89.946"
       y="54.121"
       id="use37" />
  </g>
  <g
     fill="rgb(0%, 0%, 0%)"
     fill-opacity="1"
     id="g38">
    <use
       xlink:href="#glyph-0-0"
       x="100.462"
       y="54.121"
       id="use38" />
  </g>
  <g
     fill="rgb(0%, 0%, 0%)"
     fill-opacity="1"
     id="g39">
    <use
       xlink:href="#glyph-1-1"
       x="108.211"
       y="54.121"
       id="use39" />
  </g>
  <g
     clip-path="url(#clip-1)"
     id="g40">
    <path
       fill="none"
       stroke-width="0.79701"
       stroke-linecap="butt"
       stroke-linejoin="miter"
       stroke="rgb(0%, 0%, 0%)"
       stroke-opacity="1"
       stroke-dasharray="2.98883 2.98883"
       stroke-miterlimit="10"
       d="M 19.426 11.260469 L 19.543187 11.93625 L 19.777562 13.28 L 19.89475 13.947969 L 20.011937 14.612031 L 20.246312 15.932344 L 20.3635 16.588594 L 20.476781 17.240938 L 20.593969 17.893281 L 20.828344 19.190156 L 21.062719 20.471406 L 21.297094 21.744844 L 21.414281 22.377656 L 21.531469 23.006563 L 21.64475 23.631563 L 21.761937 24.256563 L 21.879125 24.877656 L 22.1135 26.112031 L 22.230687 26.725313 L 22.465062 27.944063 L 22.58225 28.549531 L 22.699437 29.151094 L 22.812719 29.752656 L 22.929906 30.346406 L 23.047094 30.944063 L 23.281469 32.12375 L 23.398656 32.709688 L 23.633031 33.87375 L 23.750219 34.451875 L 23.867406 35.026094 L 23.980687 35.596406 L 24.097875 36.166719 L 24.33225 37.299531 L 24.449437 37.862031 L 24.566625 38.420625 L 24.801 39.53 L 24.918187 40.080781 L 25.035375 40.627656 L 25.148656 41.174531 L 25.265844 41.7175 L 25.500219 42.795625 L 25.617406 43.326875 L 25.734594 43.862031 L 25.968969 44.916719 L 26.086156 45.440156 L 26.203344 45.959688 L 26.316625 46.479219 L 26.433812 46.994844 L 26.668187 48.018281 L 26.785375 48.526094 L 26.902562 49.03 L 27.136937 50.03 L 27.371312 51.022188 L 27.484594 51.510469 L 27.718969 52.487031 L 27.953344 53.447969 L 28.187719 54.401094 L 28.304906 54.87375 L 28.539281 55.81125 L 28.652562 56.272188 L 28.886937 57.194063 L 29.2385 58.553438 L 29.472875 59.444063 L 29.70725 60.326875 L 29.820531 60.764375 L 29.937719 61.197969 L 30.172094 62.057344 L 30.406469 62.908906 L 30.640844 63.744844 L 30.875219 64.572969 L 30.9885 64.983125 L 31.222875 65.795625 L 31.340062 66.194063 L 31.45725 66.596406 L 31.691625 67.385469 L 31.808812 67.776094 L 32.043188 68.549531 L 32.156469 68.932344 L 32.273656 69.31125 L 32.508031 70.06125 L 32.742406 70.803438 L 32.859594 71.170625 L 32.976781 71.533906 L 33.211156 72.252656 L 33.324438 72.608125 L 33.558813 73.31125 L 33.676 73.658906 L 33.793188 74.002656 L 34.027563 74.682344 L 34.261938 75.354219 L 34.379125 75.682344 L 34.492406 76.010469 L 34.609594 76.338594 L 34.961156 77.299531 L 35.195531 77.924531 L 35.429906 78.541719 L 35.547094 78.846406 L 35.660375 79.147188 L 35.89475 79.740938 L 36.011938 80.033906 L 36.246313 80.612031 L 36.3635 80.897188 L 36.597875 81.459688 L 36.715063 81.733125 L 36.828344 82.010469 L 37.062719 82.549531 L 37.179906 82.815156 L 37.414281 83.338594 L 37.531469 83.596406 L 37.765844 84.104219 L 37.883031 84.354219 L 37.996313 84.600313 L 38.230688 85.084688 L 38.465063 85.56125 L 38.58225 85.791719 L 38.699438 86.026094 L 38.933813 86.479219 L 39.051 86.697969 L 39.168188 86.920625 L 39.281469 87.135469 L 39.398656 87.350313 L 39.633031 87.772188 L 39.750219 87.979219 L 39.867406 88.182344 L 40.101781 88.580781 L 40.218969 88.776094 L 40.336156 88.9675 L 40.449438 89.158906 L 40.566625 89.346406 L 40.683813 89.53 L 40.918188 89.889375 L 41.152563 90.240938 L 41.26975 90.412813 L 41.386938 90.580781 L 41.504125 90.744844 L 41.617406 90.908906 L 41.734594 91.069063 L 41.968969 91.381563 L 42.086156 91.533906 L 42.203344 91.682344 L 42.437719 91.971406 L 42.672094 92.252656 L 42.785375 92.385469 L 43.01975 92.651094 L 43.371313 93.026094 L 43.605688 93.260469 L 43.840063 93.487031 L 43.953344 93.5925 L 44.070531 93.701875 L 44.304906 93.905 L 44.422094 94.002656 L 44.656469 94.190156 L 44.773656 94.28 L 44.890844 94.365938 L 45.008031 94.447969 L 45.121313 94.53 L 45.355688 94.68625 L 45.472875 94.756563 L 45.590063 94.830781 L 45.824438 94.963594 L 45.941625 95.026094 L 46.058813 95.084688 L 46.176 95.139375 L 46.289281 95.194063 L 46.523656 95.295625 L 46.640844 95.3425 L 46.758031 95.385469 L 46.992406 95.463594 L 47.109594 95.49875 L 47.343969 95.56125 L 47.45725 95.588594 L 47.691625 95.635469 L 47.808813 95.655 L 47.926 95.670625 L 48.160375 95.694063 L 48.39475 95.709688 L 48.742406 95.709688 L 48.976781 95.694063 L 49.211156 95.670625 L 49.328344 95.655 L 49.445531 95.635469 L 49.679906 95.588594 L 49.793188 95.56125 L 50.027563 95.49875 L 50.14475 95.463594 L 50.379125 95.385469 L 50.496313 95.3425 L 50.6135 95.295625 L 50.847875 95.194063 L 50.961156 95.139375 L 51.078344 95.084688 L 51.195531 95.026094 L 51.312719 94.963594 L 51.547094 94.830781 L 51.664281 94.756563 L 51.781469 94.68625 L 52.015844 94.53 L 52.129125 94.447969 L 52.246313 94.365938 L 52.3635 94.28 L 52.480688 94.190156 L 52.715063 94.002656 L 52.83225 93.905 L 53.066625 93.701875 L 53.183813 93.5925 L 53.297094 93.487031 L 53.531469 93.260469 L 53.765844 93.026094 L 54.117406 92.651094 L 54.351781 92.385469 L 54.465063 92.252656 L 54.699438 91.971406 L 54.933813 91.682344 L 55.051 91.533906 L 55.168188 91.381563 L 55.402563 91.069063 L 55.51975 90.908906 L 55.633031 90.744844 L 55.750219 90.580781 L 55.867406 90.412813 L 55.984594 90.240938 L 56.218969 89.889375 L 56.453344 89.53 L 56.570531 89.346406 L 56.687719 89.158906 L 56.801 88.9675 L 56.918188 88.776094 L 57.035375 88.580781 L 57.26975 88.182344 L 57.386938 87.979219 L 57.504125 87.772188 L 57.7385 87.350313 L 57.855688 87.135469 L 57.968969 86.920625 L 58.086156 86.697969 L 58.203344 86.479219 L 58.437719 86.026094 L 58.554906 85.791719 L 58.672094 85.56125 L 58.906469 85.084688 L 59.023656 84.8425 L 59.136938 84.600313 L 59.254125 84.354219 L 59.371313 84.104219 L 59.605688 83.596406 L 59.722875 83.338594 L 59.95725 82.815156 L 60.074438 82.549531 L 60.191625 82.28 L 60.304906 82.010469 L 60.422094 81.733125 L 60.539281 81.459688 L 60.773656 80.897188 L 60.890844 80.612031 L 61.125219 80.033906 L 61.242406 79.740938 L 61.359594 79.444063 L 61.472875 79.147188 L 61.590063 78.846406 L 61.70725 78.541719 L 61.941625 77.924531 L 62.176 77.299531 L 62.527563 76.338594 L 62.640844 76.010469 L 62.875219 75.354219 L 63.109594 74.682344 L 63.343969 74.002656 L 63.461156 73.658906 L 63.578344 73.31125 L 63.695531 72.959688 L 63.808813 72.608125 L 63.926 72.252656 L 64.160375 71.533906 L 64.277563 71.170625 L 64.39475 70.803438 L 64.629125 70.06125 L 64.8635 69.31125 L 64.976781 68.932344 L 65.093969 68.549531 L 65.328344 67.776094 L 65.445531 67.385469 L 65.679906 66.596406 L 65.797094 66.194063 L 65.914281 65.795625 L 66.031469 65.389375 L 66.14475 64.983125 L 66.261938 64.572969 L 66.496313 63.744844 L 66.730688 62.908906 L 66.965063 62.057344 L 67.199438 61.197969 L 67.312719 60.764375 L 67.429906 60.326875 L 67.664281 59.444063 L 67.898656 58.553438 L 68.250219 57.194063 L 68.367406 56.733125 L 68.480688 56.272188 L 68.597875 55.81125 L 68.83225 54.87375 L 68.949438 54.401094 L 69.183813 53.447969 L 69.418188 52.487031 L 69.535375 51.99875 L 69.648656 51.510469 L 69.765844 51.022188 L 70.000219 50.03 L 70.234594 49.03 L 70.351781 48.526094 L 70.468969 48.018281 L 70.703344 46.994844 L 70.816625 46.479219 L 71.051 45.440156 L 71.168188 44.916719 L 71.402563 43.862031 L 71.51975 43.326875 L 71.636938 42.795625 L 71.871313 41.7175 L 71.984594 41.174531 L 72.218969 40.080781 L 72.336156 39.53 L 72.570531 38.420625 L 72.687719 37.862031 L 72.804906 37.299531 L 73.039281 36.166719 L 73.152563 35.596406 L 73.26975 35.026094 L 73.386938 34.451875 L 73.504125 33.87375 L 73.7385 32.709688 L 73.855688 32.12375 L 74.090063 30.944063 L 74.20725 30.346406 L 74.320531 29.752656 L 74.554906 28.549531 L 74.672094 27.944063 L 74.906469 26.725313 L 75.023656 26.112031 L 75.258031 24.877656 L 75.375219 24.256563 L 75.4885 23.631563 L 75.605688 23.006563 L 75.722875 22.377656 L 75.840063 21.744844 L 76.074438 20.471406 L 76.308813 19.190156 L 76.543188 17.893281 L 76.656469 17.240938 L 76.773656 16.588594 L 76.890844 15.932344 L 77.125219 14.612031 L 77.242406 13.947969 L 77.359594 13.28 L 77.593969 11.93625 L 77.711156 11.260469 "
       transform="matrix(1, 0, 0, -1, 0.199, 182.53)"
       id="path39" />
  </g>
  <path
     fill="none"
     stroke-width="0.3985"
     stroke-linecap="butt"
     stroke-linejoin="miter"
     stroke="rgb(0%, 0%, 0%)"
     stroke-opacity="1"
     stroke-miterlimit="10"
     d="M 97.597875 86.326875 L 135.539281 86.326875 "
     transform="matrix(1, 0, 0, -1, 0.199, 182.53)"
     id="path40" />
  <path
     fill="none"
     stroke-width="0.31879"
     stroke-linecap="round"
     stroke-linejoin="round"
     stroke="rgb(0%, 0%, 0%)"
     stroke-opacity="1"
     stroke-miterlimit="10"
     d="M -1.194288 1.594345 C -1.096631 0.996689 0.001025 0.0982512 0.2979 0.000595 C 0.001025 -0.100968 -1.096631 -0.995499 -1.194288 -1.593155 "
     transform="matrix(-1, 0, 0, 1, 97.7979, 96.20253)"
     id="path41" />
  <path
     fill="none"
     stroke-width="0.31879"
     stroke-linecap="round"
     stroke-linejoin="round"
     stroke="rgb(0%, 0%, 0%)"
     stroke-opacity="1"
     stroke-miterlimit="10"
     d="M -1.194631 1.593155 C -1.096975 0.995499 0.00068125 0.100968 0.297556 -0.000595 C 0.00068125 -0.0982512 -1.096975 -0.996689 -1.194631 -1.594345 "
     transform="matrix(1, 0, 0, -1, 135.7376, 96.20253)"
     id="path42" />
  <g
     fill="rgb(0%, 0%, 0%)"
     fill-opacity="1"
     id="g42">
    <use
       xlink:href="#glyph-2-2"
       x="114.381"
       y="92.684"
       id="use42" />
  </g>
  <path
     fill="none"
     stroke-width="0.3985"
     stroke-linecap="butt"
     stroke-linejoin="miter"
     stroke="rgb(0%, 0%, 0%)"
     stroke-opacity="1"
     stroke-miterlimit="10"
     d="M 135.996312 86.326875 C 135.996312 88.694063 125.777563 90.807344 110.429906 91.619844 "
     transform="matrix(1, 0, 0, -1, 0.199, 182.53)"
     id="path43" />
  <path
     fill="none"
     stroke-width="0.3985"
     stroke-linecap="butt"
     stroke-linejoin="miter"
     stroke="rgb(0%, 0%, 0%)"
     stroke-opacity="1"
     stroke-dasharray="0.3985 1.99255"
     stroke-miterlimit="10"
     d="M 110.429906 91.619844 C 101.847875 92.069063 92.433813 92.069063 83.851781 91.619844 "
     transform="matrix(1, 0, 0, -1, 0.199, 182.53)"
     id="path44" />
  <path
     fill="none"
     stroke-width="0.3985"
     stroke-linecap="butt"
     stroke-linejoin="miter"
     stroke="rgb(0%, 0%, 0%)"
     stroke-opacity="1"
     stroke-miterlimit="10"
     d="M 83.851781 91.619844 C 63.683813 90.553438 53.289281 87.322969 60.629125 84.401094 C 67.965063 81.479219 90.265844 79.975313 110.429906 81.037813 C 125.777563 81.846406 135.996312 83.959688 135.996312 86.326875 "
     transform="matrix(1, 0, 0, -1, 0.199, 182.53)"
     id="path45" />
  <path
     fill="none"
     stroke-width="0.3985"
     stroke-linecap="butt"
     stroke-linejoin="miter"
     stroke="rgb(0%, 0%, 0%)"
     stroke-opacity="1"
     stroke-miterlimit="10"
     d="M 97.597875 11.260469 L 135.539281 11.260469 "
     transform="matrix(1, 0, 0, -1, 0.199, 182.53)"
     id="path46" />
  <path
     fill="none"
     stroke-width="0.31879"
     stroke-linecap="round"
     stroke-linejoin="round"
     stroke="rgb(0%, 0%, 0%)"
     stroke-opacity="1"
     stroke-miterlimit="10"
     d="M -1.194288 1.593381 C -1.096631 0.995725 0.001025 0.101194 0.2979 -0.00036875 C 0.001025 -0.098025 -1.096631 -0.996463 -1.194288 -1.594119 "
     transform="matrix(-1, 0, 0, 1, 97.7979, 171.2699)"
     id="path47" />
  <path
     fill="none"
     stroke-width="0.31879"
     stroke-linecap="round"
     stroke-linejoin="round"
     stroke="rgb(0%, 0%, 0%)"
     stroke-opacity="1"
     stroke-miterlimit="10"
     d="M -1.194631 1.594119 C -1.096975 0.996463 0.00068125 0.098025 0.297556 0.00036875 C 0.00068125 -0.101194 -1.096975 -0.995725 -1.194631 -1.593381 "
     transform="matrix(1, 0, 0, -1, 135.7376, 171.2699)"
     id="path48" />
  <path
     fill="none"
     stroke-width="0.3985"
     stroke-linecap="butt"
     stroke-linejoin="miter"
     stroke="rgb(0%, 0%, 0%)"
     stroke-opacity="1"
     stroke-miterlimit="10"
     d="M 135.996312 11.260469 C 135.996312 13.627656 125.777563 15.740938 110.429906 16.549531 "
     transform="matrix(1, 0, 0, -1, 0.199, 182.53)"
     id="path49" />
  <path
     fill="none"
     stroke-width="0.3985"
     stroke-linecap="butt"
     stroke-linejoin="miter"
     stroke="rgb(0%, 0%, 0%)"
     stroke-opacity="1"
     stroke-dasharray="0.3985 1.99255"
     stroke-miterlimit="10"
     d="M 110.429906 16.549531 C 101.847875 17.002656 92.433813 17.002656 83.851781 16.549531 "
     transform="matrix(1, 0, 0, -1, 0.199, 182.53)"
     id="path50" />
  <g
     clip-path="url(#clip-2)"
     id="g51">
    <path
       fill="none"
       stroke-width="0.3985"
       stroke-linecap="butt"
       stroke-linejoin="miter"
       stroke="rgb(0%, 0%, 0%)"
       stroke-opacity="1"
       stroke-miterlimit="10"
       d="M 83.851781 16.549531 C 63.683813 15.487031 53.289281 12.256563 60.629125 9.334688 C 67.965063 6.412813 90.265844 4.905 110.429906 5.971406 C 125.777563 6.78 135.996312 8.893281 135.996312 11.260469 "
       transform="matrix(1, 0, 0, -1, 0.199, 182.53)"
       id="path51" />
  </g>
  <path
     fill="none"
     stroke-width="0.3985"
     stroke-linecap="butt"
     stroke-linejoin="miter"
     stroke="rgb(0%, 0%, 0%)"
     stroke-opacity="1"
     stroke-miterlimit="10"
     d="M 135.996312 11.260469 L 135.996312 86.326875 "
     transform="matrix(1, 0, 0, -1, 0.199, 182.53)"
     id="path52" />
  <g
     fill="rgb(0%, 0%, 0%)"
     fill-opacity="1"
     id="g52">
    <use
       xlink:href="#glyph-2-3"
       x="139.714"
       y="136.228"
       id="use52" />
  </g>
  <g
     fill="rgb(0%, 0%, 0%)"
     fill-opacity="1"
     id="g53">
    <use
       xlink:href="#glyph-1-4"
       x="145.454"
       y="136.228"
       id="use53" />
  </g>
  <g
     fill="rgb(0%, 0%, 0%)"
     fill-opacity="1"
     id="g54">
    <use
       xlink:href="#glyph-2-1"
       x="149.329"
       y="136.228"
       id="use54" />
  </g>
  <g
     fill="rgb(0%, 0%, 0%)"
     fill-opacity="1"
     id="g55">
    <use
       xlink:href="#glyph-1-5"
       x="155.023"
       y="136.228"
       id="use55" />
  </g>
  <path
     fill="none"
     stroke-width="0.3985"
     stroke-linecap="butt"
     stroke-linejoin="miter"
     stroke="rgb(0%, 0%, 0%)"
     stroke-opacity="1"
     stroke-miterlimit="10"
     d="M 58.285375 11.260469 L 58.285375 86.326875 "
     transform="matrix(1, 0, 0, -1, 0.199, 182.53)"
     id="path55" />
  <g
     fill="rgb(0%, 0%, 0%)"
     fill-opacity="1"
     id="g56">
    <use
       xlink:href="#glyph-2-1"
       x="207.712"
       y="173.415"
       id="use56" />
  </g>
  <g
     fill="rgb(0%, 0%, 0%)"
     fill-opacity="1"
     id="g57">
    <use
       xlink:href="#glyph-2-0"
       x="114.146"
       y="7.61"
       id="use57" />
  </g>
</svg>
